<svg xmlns="http://www.w3.org/2000/svg" viewBox="0 0 1200 750" width="1200" height="750" fill="none">
    <defs>
      <linearGradient id="bgGrad" x1="0" y1="0" x2="1" y2="1">
        <stop offset="0%" stop-color="#0F1218"/>
        <stop offset="100%" stop-color="#08090C"/>
      </linearGradient>
      <linearGradient id="accentGrad" x1="0" y1="0" x2="1" y2="0">
        <stop offset="0%" stop-color="#3B82F6"/>
        <stop offset="100%" stop-color="#6366F1"/>
      </linearGradient>
      <pattern id="dotPattern" x="0" y="0" width="24" height="24" patternUnits="userSpaceOnUse">
        <circle cx="2" cy="2" r="1" fill="#ffffff" fill-opacity="0.04" />
      </pattern>
    </defs>
    
    <!-- Outer window border and container -->
    <rect width="1200" height="750" rx="16" fill="url(#bgGrad)" stroke="rgba(255,255,255,0.1)" stroke-width="1.5"/>
    <rect width="1200" height="750" rx="16" fill="url(#dotPattern)"/>
    
    <!-- Browser Top Bar -->
    <rect x="0" y="0" width="1200" height="56" rx="16" fill="#141822" fill-opacity="0.9"/>
    <rect x="0" y="44" width="1200" height="12" fill="#141822"/>
    <line x1="0" y1="56" x2="1200" y2="56" stroke="rgba(255,255,255,0.08)" stroke-width="1"/>
    
    <!-- Window controls -->
    <circle cx="28" cy="28" r="6" fill="#EF4444" fill-opacity="0.8"/>
    <circle cx="48" cy="28" r="6" fill="#F59E0B" fill-opacity="0.8"/>
    <circle cx="68" cy="28" r="6" fill="#10B981" fill-opacity="0.8"/>
    
    <!-- URL Address pill -->
    <rect x="180" y="14" width="840" height="28" rx="6" fill="#0B0D12" stroke="rgba(255,255,255,0.08)" stroke-width="1"/>
    <circle cx="202" cy="28" r="4" fill="#3B82F6"/>
    <text x="218" y="32" font-family="system-ui, -apple-system, sans-serif" font-size="12" fill="#94A3B8" font-weight="500">https://github.com/RohitBhosale673/-Mini-CRM-Mobile-Application</text>
    
    <!-- Action icons placeholder -->
    <rect x="1040" y="18" width="20" height="20" rx="4" fill="rgba(255,255,255,0.05)"/>
    <rect x="1075" y="18" width="20" height="20" rx="4" fill="rgba(255,255,255,0.05)"/>
    <rect x="1110" y="18" width="60" height="20" rx="4" fill="#3B82F6" fill-opacity="0.2"/>
    <text x="1122" y="32" font-family="system-ui, sans-serif" font-size="10" fill="#3B82F6" font-weight="700">LIVE</text>
    
    <!-- Main Content Area -->
    <g transform="translate(0, 56)">
      
  <rect width="1200" height="694" fill="#090B10"/>
  <!-- Centered Mobile Frame -->
  <g transform="translate(420, 30)">
    <rect x="0" y="0" width="360" height="630" rx="36" fill="#0F1219" stroke="rgba(255,255,255,0.15)" stroke-width="3"/>
    <rect x="130" y="10" width="100" height="18" rx="9" fill="#000000"/>
    <text x="24" y="60" font-family="system-ui, sans-serif" font-size="16" font-weight="700" fill="#FFFFFF">Mini CRM</text>
    
    <rect x="20" y="85" width="320" height="70" rx="12" fill="#171C28"/>
    <text x="36" y="112" font-family="system-ui, sans-serif" font-size="14" font-weight="600" fill="#FFFFFF">Total Pipeline</text>
    <text x="36" y="138" font-family="system-ui, sans-serif" font-size="20" font-weight="700" fill="#3B82F6">$48,200</text>
    
    <text x="24" y="185" font-family="system-ui, sans-serif" font-size="13" font-weight="700" fill="#94A3B8">RECENT LEADS</text>
    
    <rect x="20" y="200" width="320" height="65" rx="10" fill="#151A24"/>
    <text x="36" y="228" font-family="system-ui, sans-serif" font-size="13" font-weight="600" fill="#FFFFFF">Dr. Shinde Clinic</text>
    <text x="36" y="248" font-family="system-ui, sans-serif" font-size="11" fill="#64748B">Medical Management • Active</text>

    <rect x="20" y="280" width="320" height="65" rx="10" fill="#151A24"/>
    <text x="36" y="308" font-family="system-ui, sans-serif" font-size="13" font-weight="600" fill="#FFFFFF">Zenith Logistics</text>
    <text x="36" y="328" font-family="system-ui, sans-serif" font-size="11" fill="#64748B">Fleet Dispatch • Contract Sent</text>
  </g>

    </g>
  </svg>